<svg width="46" height="46" viewBox="0 0 46 46" fill="none" xmlns="http://www.w3.org/2000/svg">
<g clip-path="url(#clip0_107_4)">
<path d="M40.462 19.193H39.13V17.321C39.13 14.3 36.654 11.863 33.634 11.863H24.659V7.373C25.839 6.69 26.632 5.414 26.632 3.95C26.632 1.768 24.861 0 22.681 0C20.498 0 18.718 1.769 18.718 3.95C18.718 5.414 19.503 6.69 20.683 7.373V11.863H11.722C8.701 11.863 6.274 14.3 6.274 17.321V19.193H4.893C3.192 19.193 1.802 20.6 1.802 22.301V28.954C1.802 30.654 3.192 32.049 4.893 32.049H6.274V33.936C6.274 36.957 8.701 39.378 11.722 39.378H14.286V42.262C14.286 43.963 15.679 45.342 17.38 45.342H27.976C29.677 45.342 31.056 43.963 31.056 42.262V39.379H33.634C36.655 39.379 39.13 36.957 39.13 33.936V32.05H40.462C42.163 32.05 43.54 30.656 43.54 28.955V22.302C43.54 20.601 42.165 19.193 40.462 19.193ZM10.681 21.271C10.681 19.272 12.302 17.653 14.3 17.653C16.298 17.653 17.917 19.272 17.917 21.271C17.917 23.27 16.298 24.889 14.3 24.889C12.302 24.889 10.681 23.27 10.681 21.271ZM27.606 34.473H17.75C16.117 34.473 14.793 33.157 14.793 31.522C14.793 29.889 16.117 28.573 17.75 28.573H27.607C29.24 28.573 30.564 29.889 30.564 31.522C30.564 33.155 29.239 34.473 27.606 34.473ZM31.056 24.889C29.058 24.889 27.438 23.27 27.438 21.271C27.438 19.272 29.058 17.653 31.056 17.653C33.055 17.653 34.675 19.272 34.675 21.271C34.675 23.27 33.055 24.889 31.056 24.889Z" fill="#48CAE4"/>
</g>
<defs>
<clipPath id="clip0_107_4">
<rect width="45.342" height="45.342" fill="white"/>
</clipPath>
</defs>
</svg>
